<?xml version="1.0" encoding="UTF-8" standalone="no"?><!DOCTYPE svg PUBLIC "-//W3C//DTD SVG 1.1//EN" "http://www.w3.org/Graphics/SVG/1.1/DTD/svg11.dtd"><svg width="100%" height="100%" viewBox="0 0 441 438" version="1.1" xmlns="http://www.w3.org/2000/svg" xmlns:xlink="http://www.w3.org/1999/xlink" xml:space="preserve" xmlns:serif="http://www.serif.com/" style="fill-rule:evenodd;clip-rule:evenodd;stroke-linejoin:round;stroke-miterlimit:2;"><path d="M106.592,319.516c-6.667,-6.25 -12.835,-13.223 -18.388,-20.902c-36.61,-50.625 -35.734,-117.028 -2.707,-166.007c0.355,0.532 0.721,1.059 1.099,1.582c3.416,4.723 7.51,8.671 12.057,11.806c-26.824,42.45 -26.798,98.724 4.407,141.876c4.163,5.757 8.722,11.06 13.613,15.899c-3.728,3.857 -6.86,8.414 -9.177,13.589c-0.321,0.715 -0.622,1.434 -0.904,2.157Zm60.727,-245.603c56.583,-15.475 119.356,4.558 155.737,54.867c5.935,8.207 10.885,16.829 14.872,25.724c-1.284,0.026 -2.578,0.104 -3.879,0.238c-5.127,0.528 -9.975,1.868 -14.43,3.88c-3.186,-6.58 -6.988,-12.972 -11.419,-19.099c-31.005,-42.875 -83.955,-60.576 -132.418,-48.857c-1.546,-5.431 -4.046,-10.685 -7.542,-15.518c-0.302,-0.418 -0.609,-0.83 -0.921,-1.235Zm179.271,173.289c-7.738,32.631 -26.763,62.746 -56.043,83.921c-29.269,21.166 -63.813,29.802 -97.213,26.938c0.305,-0.611 0.599,-1.231 0.881,-1.861c2.356,-5.26 3.676,-10.722 4.047,-16.158c28.118,1.66 56.96,-5.999 81.542,-23.775c24.499,-17.717 40.779,-42.599 48.047,-69.716c5.018,1.216 10.324,1.613 15.75,1.055c1.007,-0.104 2.004,-0.239 2.989,-0.404Zm-244.49,-177.545c19.434,-14.054 46.542,-9.745 60.507,9.565c13.964,19.31 9.564,46.404 -9.87,60.458c-19.434,14.054 -46.543,9.745 -60.507,-9.565c-13.964,-19.31 -9.564,-46.404 9.87,-60.458Zm10.743,14.856c-11.209,8.105 -13.811,23.722 -5.757,34.859c8.054,11.137 23.699,13.558 34.908,5.452c11.209,-8.106 13.811,-23.722 5.757,-34.859c-8.054,-11.137 -23.7,-13.558 -34.908,-5.452Zm21.612,288.883c-20.209,-9.051 -29.268,-32.807 -20.216,-53.017c9.051,-20.209 32.808,-29.268 53.017,-20.216c20.209,9.052 29.268,32.808 20.216,53.017c-9.051,20.209 -32.808,29.268 -53.017,20.216Zm7.494,-16.731c10.975,4.915 23.876,-0.004 28.791,-10.979c4.916,-10.975 -0.003,-23.876 -10.978,-28.791c-10.975,-4.916 -23.876,0.003 -28.792,10.978c-4.915,10.975 0.004,23.876 10.979,28.792Zm236.787,-159.596c2.266,22.027 -13.778,41.751 -35.806,44.016c-22.027,2.266 -41.75,-13.778 -44.016,-35.806c-2.266,-22.027 13.778,-41.75 35.806,-44.016c22.028,-2.266 41.751,13.778 44.016,35.806Zm-18.237,1.876c-1.23,-11.963 -11.941,-20.675 -23.903,-19.445c-11.962,1.23 -20.675,11.941 -19.445,23.903c1.23,11.963 11.941,20.676 23.904,19.445c11.962,-1.23 20.675,-11.941 19.444,-23.903Zm-202.256,74.925l-20.803,-63.892l20.803,-59.281l55.683,-0c40.1,-0 67.591,24.282 67.591,61.586c-0,37.304 -27.491,61.587 -67.591,61.587l-55.683,0Zm28.367,-23.403l25.915,0c24.341,0 40.275,-14.604 40.275,-38.184c-0,-23.579 -15.934,-38.183 -40.275,-38.183l-25.915,-0l-0,27.444l22.19,11.194l-22.19,13.918l-0,23.811Z" style="fill:url(#_Linear1);"/><defs><linearGradient id="_Linear1" x1="0" y1="0" x2="1" y2="0" gradientUnits="userSpaceOnUse" gradientTransform="matrix(359.316,-50.0193,98.6689,708.792,27.6386,231.513)"><stop offset="0" style="stop-color:#9a21af;stop-opacity:1"/><stop offset="0.55" style="stop-color:#6400dd;stop-opacity:1"/><stop offset="1" style="stop-color:#6a02f9;stop-opacity:1"/></linearGradient></defs></svg>