<svg xmlns="http://www.w3.org/2000/svg" viewBox="0 0 24 24" width="24" height="24"><path fill="#000" d="M20.317 4.369A19.79 19.79 0 0 0 16.558 3.2a.074.074 0 0 0-.079.037c-.34.607-.719 1.4-.984 2.022a18.27 18.27 0 0 0-5.486 0 12.6 12.6 0 0 0-.997-2.022.077.077 0 0 0-.079-.037A19.736 19.736 0 0 0 3.677 4.37a.07.07 0 0 0-.032.027C1.533 7.55.953 10.654 1.24 13.717a.082.082 0 0 0 .031.057 19.9 19.9 0 0 0 5.993 3.03.078.078 0 0 0 .084-.028c.462-.63.874-1.295 1.226-1.994a.076.076 0 0 0-.041-.106 13.1 13.1 0 0 1-1.872-.892.077.077 0 0 1-.008-.128c.126-.094.252-.192.372-.291a.074.074 0 0 1 .077-.01c3.928 1.793 8.18 1.793 12.062 0a.074.074 0 0 1 .078.009c.12.099.246.198.373.292a.077.077 0 0 1-.006.127 12.3 12.3 0 0 1-1.873.891.077.077 0 0 0-.041.107c.36.698.772 1.362 1.225 1.993a.076.076 0 0 0 .084.028 19.84 19.84 0 0 0 6.002-3.03.077.077 0 0 0 .032-.054c.5-3.638-.838-6.717-2.546-9.32a.06.06 0 0 0-.031-.028zM8.02 11.852c-1.182 0-2.157-1.085-2.157-2.419 0-1.333.956-2.419 2.157-2.419 1.21 0 2.176 1.096 2.157 2.42 0 1.333-.956 2.418-2.157 2.418zm7.975 0c-1.183 0-2.157-1.085-2.157-2.419 0-1.333.955-2.419 2.157-2.419 1.21 0 2.176 1.096 2.157 2.42 0 1.333-.946 2.418-2.157 2.418z"/></svg>
