<?xml version="1.0"?><svg width="100%" height="100%" viewBox="0 0 300 200" version="1.1" xmlns="http://www.w3.org/2000/svg" xmlns:xlink="http://www.w3.org/1999/xlink" xml:space="preserve" xmlns:serif="http://www.serif.com/" style="fill-rule:evenodd;clip-rule:evenodd;stroke-linejoin:round;stroke-miterlimit:2;"><use id="_Image1_" xlink:href="#_Image1" x="0" y="0" width="216px" height="260px" transform="matrix(0.997971,0,0,0.998451,105.198,26.2494)"></use><path d="M148.837,69.889l3.108,0c21.693,0 36.565,13.072 36.565,33.154c-0,20.081 -14.872,33.154 -36.565,33.154l-3.108,0l0,-12.598l2.351,-0c13.167,-0 21.787,-7.862 21.787,-20.556c-0,-12.693 -8.62,-20.555 -21.787,-20.555l-2.351,-0l0,-12.599Zm0,33.608l0,-0.377l0.335,0.168l-0.335,0.209Z" style="fill:#ffedff;"></path><use id="_Image2_" xlink:href="#_Image2" x="0" y="0" width="212px" height="266px" transform="matrix(1.003,0,0,1.00197,67.1212,24.076)"></use><path d="M148.837,136.197l-27.014,0l-11.254,-34.395l11.254,-31.913l27.014,0l0,12.599l-11.669,-0l0,14.774l11.669,5.858l0,0.377l-11.669,7.283l0,12.819l11.669,-0l0,12.598Z" style="fill:#ffedff;"></path><path d="M121.823,136.197l30.122,0c21.693,0 36.565,-13.073 36.565,-33.154c-0,-20.082 -14.872,-33.154 -36.565,-33.154l-30.122,0l-11.254,31.913l11.254,34.395Zm15.345,-12.598l0,-12.819l12.004,-7.492l-12.004,-6.026l0,-14.774l14.02,-0c13.167,-0 21.787,7.862 21.787,20.555c-0,12.694 -8.62,20.556 -21.787,20.556l-14.02,-0Z" style="fill:#ffedff;fill-rule:nonzero;"></path><defs><image id="_Image1" width="128px" height="154px"></image><image id="_Image2" width="125px" height="157px"></image></defs></svg>