<?xml version="1.0"?><svg width="100%" height="100%" viewBox="0 0 5101 600" version="1.1" xmlns="http://www.w3.org/2000/svg" xmlns:xlink="http://www.w3.org/1999/xlink" xml:space="preserve" xmlns:serif="http://www.serif.com/" style="fill-rule:evenodd;clip-rule:evenodd;stroke-linejoin:round;stroke-miterlimit:2;"><use id="Dighub-Logo-png" xlink:href="#_Image1" x="0" y="0" width="3000px" height="2567px" transform="matrix(1.00022,0,0,0.999923,0,0)"></use><path d="M1067.28,96.009c42.86,0 80.649,8.323 113.367,24.97c32.719,16.646 58.071,40.181 76.057,70.603c17.985,30.423 26.978,65.533 26.978,105.331c0,39.798 -9.184,75.004 -27.552,105.618c-18.369,30.614 -44.199,54.244 -77.492,70.89c-33.292,16.647 -71.751,24.97 -115.376,24.97l-172.203,-0l-0,-402.382l176.221,0Zm3.444,308.818c27.17,-0 49.174,-9.758 66.011,-29.275c16.838,-19.516 25.257,-45.346 25.257,-77.491c-0,-32.145 -8.993,-58.166 -26.979,-78.065c-17.985,-19.899 -41.328,-29.849 -70.029,-29.849l-54.531,0l0,214.68l60.271,-0Z" style="fill-rule:nonzero;"></path><rect x="1328.45" y="96.009" width="119.394" height="402.381" style="fill-rule:nonzero;"></rect><path d="M1778.48,290.025l102.748,-0l-0,163.593c-21.812,15.307 -48.791,27.935 -80.935,37.885c-32.145,9.949 -62.568,14.924 -91.268,14.924c-40.946,-0 -77.874,-9.089 -110.784,-27.266c-32.91,-18.177 -58.741,-43.146 -77.492,-74.908c-18.751,-31.762 -28.126,-67.542 -28.126,-107.34c-0,-39.415 9.662,-75.004 28.987,-106.766c19.325,-31.762 46.113,-56.636 80.362,-74.621c34.249,-17.986 72.612,-26.979 115.089,-26.979c30.614,0 61.228,5.549 91.842,16.646c30.614,11.098 56.635,26.214 78.065,45.347l-67.733,81.51c-13.776,-13.394 -29.944,-24.109 -48.504,-32.145c-18.56,-8.036 -36.641,-12.054 -54.244,-12.054c-19.134,0 -36.45,4.783 -51.948,14.35c-15.498,9.567 -27.648,22.674 -36.45,39.32c-8.801,16.646 -13.202,35.11 -13.202,55.392c0,20.664 4.497,39.415 13.489,56.253c8.993,16.838 21.334,30.04 37.024,39.607c15.69,9.567 33.101,14.35 52.235,14.35c17.22,0 37.502,-5.549 60.845,-16.646l0,-100.452Z" style="fill-rule:nonzero;"></path><path d="M2335.24,96.009l109.062,0l0,402.382l-101.599,-0l-170.482,-223.864l0,223.864l-109.636,-0l0,-402.382l102.174,0l170.481,224.438l0,-224.438Z" style="fill-rule:nonzero;"></path><path d="M2487.55,96.009l328.908,0l0,91.842l-209.513,0l-0,63.141l189.997,0l0,91.842l-189.997,-0l-0,63.715l215.253,-0l0,91.842l-334.648,-0l0,-402.382Z" style="fill-rule:nonzero;"></path><path d="M2847.14,96.009l322.919,0l30.672,95.286l-117.098,0l-0,307.096l-119.969,-0l0,-307.096l-116.524,0l0,-95.286Z" style="fill-rule:nonzero;"></path><path d="M3733.99,96.009l122.265,0l-136.041,402.382l-122.838,-0l-67.733,-257.731l-70.03,257.731l-122.264,-0l-134.892,-402.382l127.43,0l72.325,279.543l71.752,-279.543l116.524,0l72.325,278.969l71.177,-278.969Z" style="fill-rule:nonzero;"></path><path d="M4051.88,88.547c41.329,0 78.735,8.993 112.219,26.979c33.484,17.985 59.697,42.763 78.639,74.334c18.943,31.571 28.414,67.064 28.414,106.479c-0,39.798 -9.471,75.674 -28.414,107.627c-18.942,31.953 -45.155,57.018 -78.639,75.195c-33.484,18.177 -70.89,27.266 -112.219,27.266c-41.712,-0 -79.214,-9.089 -112.506,-27.266c-33.293,-18.177 -59.41,-43.242 -78.353,-75.195c-18.942,-31.953 -28.413,-67.829 -28.413,-107.627c-0,-39.415 9.471,-74.908 28.413,-106.479c18.943,-31.571 45.06,-56.349 78.353,-74.334c33.292,-17.986 70.794,-26.979 112.506,-26.979Zm1.722,99.304c-17.603,0 -33.962,4.783 -49.078,14.35c-15.116,9.567 -27.17,22.674 -36.163,39.32c-8.993,16.646 -13.489,35.11 -13.489,55.392c0,20.282 4.496,38.841 13.489,55.679c8.993,16.838 21.047,30.136 36.163,39.894c15.116,9.758 31.475,14.637 49.078,14.637c17.22,0 33.197,-4.879 47.93,-14.637c14.733,-9.758 26.309,-22.961 34.727,-39.607c8.419,-16.646 12.629,-35.302 12.629,-55.966c-0,-20.282 -4.21,-38.746 -12.629,-55.392c-8.418,-16.646 -19.899,-29.753 -34.44,-39.32c-14.542,-9.567 -30.614,-14.35 -48.217,-14.35Z" style="fill-rule:nonzero;"></path><path d="M4539.6,498.391l-53.383,-108.488l-63.141,-0l-0,108.488l-119.395,-0l0,-402.382l187.702,0c53.957,0 95.764,12.437 125.421,37.311c29.657,24.874 44.486,60.08 44.486,105.618c-0,29.466 -5.836,55.009 -17.507,76.63c-11.672,21.621 -28.414,38.746 -50.226,51.374l81.509,131.449l-135.466,-0Zm-116.524,-200.33l68.307,0c17.986,0 31.857,-4.783 41.616,-14.35c9.758,-9.567 14.637,-23.343 14.637,-41.329c-0,-17.603 -4.879,-31.092 -14.637,-40.468c-9.759,-9.375 -23.63,-14.063 -41.616,-14.063l-68.307,0l-0,110.21Z" style="fill-rule:nonzero;"></path><path d="M5100.68,498.391l-142.928,-0l-94.138,-148.095l-44.773,49.365l0,98.73l-119.394,-0l0,-402.382l119.394,0l0,161.297l134.893,-161.297l137.762,0l-146.372,163.019l155.556,239.363Z" style="fill-rule:nonzero;"></path><defs><image id="_Image1" width="701px" height="600px"></image></defs></svg>