<?xml version="1.0"?><svg width="100%" height="100%" viewBox="0 0 1559 794" version="1.1" xmlns="http://www.w3.org/2000/svg" xmlns:xlink="http://www.w3.org/1999/xlink" xml:space="preserve" xmlns:serif="http://www.serif.com/" style="fill-rule:evenodd;clip-rule:evenodd;stroke-linejoin:round;stroke-miterlimit:2;"><use xlink:href="#_Image1" x="16" y="16" width="858px" height="760px"></use><path d="M789.09,416.172l-141.837,0l-53.662,-157.019l53.662,-159.153l141.837,-0l-0,60.083c-0.604,-0.007 -1.211,-0.01 -1.819,-0.01l-66.849,-0l0,70.447l57.24,28.734l-57.24,35.725l0,61.12l66.849,0c0.608,0 1.215,-0.003 1.819,-0.01l-0,60.083Zm-0,275.016l-0.955,-0l0,-96.38l-36.57,-0l-0,-29.905l37.525,0l-0,126.285Zm-633.784,-126.285c13.451,0 25.311,2.612 35.579,7.837c10.269,5.224 18.225,12.61 23.87,22.158c5.645,9.548 8.467,20.567 8.467,33.057c0,12.491 -2.882,23.54 -8.647,33.148c-5.765,9.608 -13.872,17.024 -24.32,22.248c-10.449,5.225 -22.519,7.837 -36.21,7.837l-54.045,-0l0,-126.285l55.306,0Zm1.081,96.92c8.527,0 15.433,-3.062 20.717,-9.187c5.284,-6.125 7.926,-14.232 7.926,-24.32c0,-10.089 -2.822,-18.255 -8.467,-24.501c-5.644,-6.245 -12.97,-9.367 -21.978,-9.367l-17.114,-0l0,67.375l18.916,0Zm80.887,-96.92l37.471,0l-0,126.285l-37.471,-0l-0,-126.285Zm141.237,60.891l32.247,-0l-0,51.342c-6.846,4.804 -15.313,8.767 -25.402,11.89c-10.088,3.123 -19.636,4.684 -28.643,4.684c-12.851,-0 -24.441,-2.853 -34.769,-8.557c-10.329,-5.705 -18.435,-13.541 -24.32,-23.51c-5.885,-9.968 -8.828,-21.197 -8.828,-33.688c0,-12.37 3.033,-23.539 9.098,-33.507c6.065,-9.969 14.472,-17.775 25.221,-23.42c10.749,-5.645 22.789,-8.467 36.12,-8.467c9.608,0 19.216,1.742 28.824,5.224c9.608,3.483 17.774,8.227 24.5,14.232l-21.258,25.581c-4.323,-4.203 -9.397,-7.566 -15.222,-10.088c-5.825,-2.522 -11.5,-3.783 -17.024,-3.783c-6.005,-0 -11.44,1.501 -16.304,4.504c-4.864,3.002 -8.677,7.116 -11.439,12.34c-2.763,5.224 -4.144,11.019 -4.144,17.384c0,6.486 1.411,12.371 4.234,17.655c2.822,5.284 6.695,9.428 11.619,12.43c4.924,3.003 10.389,4.504 16.394,4.504c5.404,-0 11.77,-1.741 19.096,-5.224l-0,-31.526Zm212.396,-60.891l34.228,0l0,126.285l-31.886,-0l-53.505,-70.258l0,70.258l-34.408,-0l-0,-126.285l32.066,0l53.505,70.438l-0,-70.438Zm47.804,0l103.226,0l-0,28.824l-65.755,-0l0,19.816l59.63,0l-0,28.824l-59.63,0l0,19.997l67.556,-0l0,28.824l-105.027,-0l0,-126.285Z" style="fill:#ffedff;"></path><use xlink:href="#_Image2" x="705.09" y="20" width="824px" height="754px"></use><path d="M789.09,100l1.794,-0c103.435,-0 174.347,62.33 174.347,158.084c0,95.754 -70.912,158.088 -174.347,158.088l-1.794,0l-0,-60.083c61.758,-0.718 102.067,-38.064 102.067,-98.005c-0,-59.937 -40.309,-97.283 -102.067,-98.001l-0,-60.083Zm-0,464.903l63.821,0l9.626,29.905l-36.751,-0l0,96.38l-36.696,-0l-0,-126.285Zm240.806,0l38.371,0l-42.695,126.285l-38.552,-0l-21.258,-80.887l-21.978,80.887l-38.372,-0l-42.335,-126.285l39.994,0l22.698,87.733l22.519,-87.733l36.57,0l22.699,87.553l22.339,-87.553Zm99.767,-2.342c12.971,0 24.711,2.822 35.22,8.467c10.508,5.645 18.735,13.421 24.68,23.329c5.945,9.909 8.917,21.048 8.917,33.418c0,12.491 -2.972,23.75 -8.917,33.778c-5.945,10.028 -14.172,17.895 -24.68,23.6c-10.509,5.704 -22.249,8.557 -35.22,8.557c-13.091,-0 -24.86,-2.853 -35.309,-8.557c-10.449,-5.705 -18.645,-13.572 -24.59,-23.6c-5.945,-10.028 -8.918,-21.287 -8.918,-33.778c0,-12.37 2.973,-23.509 8.918,-33.418c5.945,-9.908 14.141,-17.684 24.59,-23.329c10.449,-5.645 22.218,-8.467 35.309,-8.467Zm0.541,31.166c-5.525,-0 -10.659,1.501 -15.403,4.504c-4.744,3.002 -8.527,7.116 -11.349,12.34c-2.823,5.224 -4.234,11.019 -4.234,17.384c0,6.366 1.411,12.19 4.234,17.475c2.822,5.284 6.605,9.458 11.349,12.52c4.744,3.063 9.878,4.594 15.403,4.594c5.404,-0 10.418,-1.531 15.042,-4.594c4.624,-3.062 8.257,-7.206 10.899,-12.43c2.642,-5.224 3.964,-11.079 3.964,-17.565c-0,-6.365 -1.322,-12.16 -3.964,-17.384c-2.642,-5.224 -6.245,-9.338 -10.809,-12.34c-4.563,-3.003 -9.608,-4.504 -15.132,-4.504Zm152.528,97.461l-16.753,-34.048l-19.817,-0l0,34.048l-37.471,-0l0,-126.285l58.909,0c16.934,0 30.055,3.903 39.363,11.71c9.307,7.806 13.961,18.855 13.961,33.147c0,9.248 -1.831,17.265 -5.494,24.05c-3.663,6.786 -8.918,12.16 -15.763,16.124l25.581,41.254l-42.516,-0Zm-36.57,-62.872l21.438,-0c5.645,-0 9.998,-1.502 13.061,-4.504c3.062,-3.003 4.594,-7.326 4.594,-12.971c-0,-5.524 -1.532,-9.758 -4.594,-12.7c-3.063,-2.943 -7.416,-4.414 -13.061,-4.414l-21.438,-0l0,34.589Zm212.66,62.872l-44.857,-0l-29.544,-46.479l-14.052,15.493l-0,30.986l-37.471,-0l-0,-126.285l37.471,0l-0,50.622l42.335,-50.622l43.236,0l-45.938,51.162l48.82,75.123Z" style="fill:#ffedff;"></path><path d="M156.836,564.08c13.407,-0 25.229,2.604 35.464,7.811c10.235,5.207 18.166,12.57 23.792,22.087c5.627,9.516 8.44,20.5 8.44,32.95c-0,12.45 -2.873,23.463 -8.619,33.04c-5.746,9.577 -13.827,16.969 -24.242,22.176c-10.414,5.207 -22.445,7.811 -36.092,7.811l-53.87,0l0,-125.875l55.127,-0Zm1.077,96.606c8.5,0 15.383,-3.053 20.65,-9.158c5.267,-6.105 7.901,-14.185 7.901,-24.241c0,-10.056 -2.813,-18.196 -8.439,-24.421c-5.627,-6.225 -12.929,-9.337 -21.907,-9.337l-17.059,-0l-0,67.157l18.854,0Zm80.625,-96.606l37.35,-0l-0,125.875l-37.35,0l-0,-125.875Zm140.779,60.693l32.142,-0l0,51.176c-6.823,4.788 -15.263,8.739 -25.318,11.851c-10.056,3.113 -19.573,4.669 -28.551,4.669c-12.809,0 -24.361,-2.843 -34.656,-8.529c-10.295,-5.687 -18.376,-13.498 -24.242,-23.434c-5.865,-9.935 -8.798,-21.128 -8.798,-33.578c-0,-12.33 3.022,-23.463 9.068,-33.399c6.045,-9.936 14.425,-17.717 25.139,-23.344c10.714,-5.626 22.715,-8.439 36.003,-8.439c9.576,-0 19.153,1.735 28.73,5.207c9.577,3.472 17.717,8.2 24.421,14.186l-21.189,25.498c-4.309,-4.19 -9.367,-7.542 -15.173,-10.056c-5.806,-2.514 -11.462,-3.771 -16.969,-3.771c-5.985,0 -11.402,1.497 -16.251,4.489c-4.848,2.993 -8.649,7.093 -11.402,12.301c-2.753,5.207 -4.13,10.983 -4.13,17.328c0,6.464 1.407,12.33 4.22,17.597c2.813,5.267 6.674,9.397 11.582,12.39c4.908,2.993 10.355,4.489 16.34,4.489c5.387,0 11.732,-1.736 19.034,-5.207l0,-31.424Zm211.708,-60.693l34.117,-0l-0,125.875l-31.783,0l-53.331,-70.03l-0,70.03l-34.297,0l0,-125.875l31.963,-0l53.331,70.21l-0,-70.21Zm47.649,-0l102.891,-0l-0,28.73l-65.542,0l0,19.753l59.436,-0l0,28.73l-59.436,-0l0,19.932l67.337,-0l0,28.73l-104.686,0l-0,-125.875Zm112.488,-0l101.017,-0l9.595,29.808l-36.631,-0l-0,96.067l-37.529,0l-0,-96.067l-36.452,-0l-0,-29.808Zm277.428,-0l38.247,-0l-42.556,125.875l-38.427,0l-21.189,-80.625l-21.907,80.625l-38.247,0l-42.198,-125.875l39.863,-0l22.625,87.448l22.446,-87.448l36.452,-0l22.625,87.269l22.266,-87.269Zm99.444,-2.334c12.929,-0 24.631,2.813 35.105,8.439c10.475,5.627 18.675,13.378 24.601,23.254c5.925,9.876 8.888,20.979 8.888,33.309c0,12.45 -2.963,23.673 -8.888,33.669c-5.926,9.995 -14.126,17.836 -24.601,23.523c-10.474,5.686 -22.176,8.529 -35.105,8.529c-13.048,0 -24.78,-2.843 -35.194,-8.529c-10.415,-5.687 -18.585,-13.528 -24.511,-23.523c-5.926,-9.996 -8.889,-21.219 -8.889,-33.669c0,-12.33 2.963,-23.433 8.889,-33.309c5.926,-9.876 14.096,-17.627 24.511,-23.254c10.414,-5.626 22.146,-8.439 35.194,-8.439Zm0.539,31.064c-5.507,0 -10.624,1.497 -15.353,4.489c-4.728,2.993 -8.499,7.093 -11.312,12.301c-2.814,5.207 -4.22,10.983 -4.22,17.328c-0,6.344 1.406,12.15 4.22,17.418c2.813,5.267 6.584,9.427 11.312,12.479c4.729,3.053 9.846,4.579 15.353,4.579c5.387,0 10.385,-1.526 14.994,-4.579c4.609,-3.052 8.23,-7.182 10.863,-12.39c2.634,-5.207 3.951,-11.043 3.951,-17.507c-0,-6.345 -1.317,-12.121 -3.951,-17.328c-2.633,-5.208 -6.224,-9.308 -10.773,-12.301c-4.549,-2.992 -9.577,-4.489 -15.084,-4.489Zm152.034,97.145l-16.699,-33.938l-19.752,0l-0,33.938l-37.35,0l-0,-125.875l58.718,-0c16.879,-0 29.957,3.891 39.235,11.672c9.277,7.781 13.916,18.794 13.916,33.04c0,9.217 -1.825,17.208 -5.477,23.972c-3.651,6.763 -8.888,12.12 -15.712,16.071l25.499,41.12l-42.378,0Zm-36.451,-62.668l21.368,-0c5.626,-0 9.966,-1.496 13.018,-4.489c3.053,-2.993 4.579,-7.303 4.579,-12.929c0,-5.507 -1.526,-9.726 -4.579,-12.659c-3.052,-2.933 -7.392,-4.4 -13.018,-4.4l-21.368,0l-0,34.477Zm211.97,62.668l-44.712,0l-29.448,-46.328l-14.006,15.443l-0,30.885l-37.35,0l0,-125.875l37.35,-0l-0,50.458l42.197,-50.458l43.096,-0l-45.789,50.996l48.662,74.879Zm-808.938,-274.124l-53.488,-156.51l53.488,-158.637l143.165,0c103.1,0 173.783,62.128 173.783,157.572c-0,95.444 -70.683,157.575 -173.783,157.575l-143.165,0Zm72.932,-59.878l66.632,0c62.581,0 103.549,-37.366 103.549,-97.697c-0,-60.327 -40.968,-97.694 -103.549,-97.694l-66.632,-0l0,70.219l57.054,28.641l-57.054,35.608l0,60.923Z" style="fill:#fff;"></path><defs><image id="_Image1" width="858px" height="760px"></image><image id="_Image2" width="824px" height="754px"></image></defs></svg>