<?xml version="1.0"?><svg width="100%" height="100%" viewBox="0 0 2135 1044" version="1.1" xmlns="http://www.w3.org/2000/svg" xmlns:xlink="http://www.w3.org/1999/xlink" xml:space="preserve" xmlns:serif="http://www.serif.com/" style="fill-rule:evenodd;clip-rule:evenodd;stroke-linejoin:round;stroke-miterlimit:2;"><g><g><path d="M98.426,726.249c21.012,0 39.539,4.081 55.58,12.242c16.041,8.161 28.471,19.699 37.288,34.615c8.818,14.915 13.227,32.129 13.227,51.64c0,19.512 -4.503,36.773 -13.508,51.782c-9.005,15.009 -21.669,26.594 -37.992,34.755c-16.322,8.161 -35.177,12.242 -56.565,12.242l-84.426,-0l-0,-197.276l86.396,0Zm1.688,151.404c13.321,0 24.109,-4.784 32.364,-14.352c8.255,-9.568 12.382,-22.232 12.382,-37.992c0,-15.759 -4.409,-28.517 -13.227,-38.273c-8.818,-9.756 -20.262,-14.634 -34.333,-14.634l-26.735,0l0,105.251l29.549,0Z" style="fill:#fff;fill-rule:nonzero;"></path><rect x="226.472" y="726.249" width="58.535" height="197.276" style="fill:#fff;fill-rule:nonzero;"></rect><path d="M447.106,821.369l50.374,0l-0,80.205c-10.694,7.505 -23.921,13.696 -39.68,18.574c-15.76,4.878 -30.675,7.317 -44.746,7.317c-20.075,-0 -38.18,-4.456 -54.314,-13.368c-16.135,-8.911 -28.799,-21.153 -37.992,-36.725c-9.193,-15.572 -13.79,-33.114 -13.79,-52.626c0,-19.324 4.738,-36.772 14.212,-52.344c9.475,-15.572 22.607,-27.767 39.399,-36.584c16.791,-8.818 35.6,-13.227 56.425,-13.227c15.009,-0 30.018,2.72 45.027,8.161c15.009,5.441 27.767,12.851 38.273,22.232l-33.207,39.962c-6.755,-6.567 -14.681,-11.82 -23.78,-15.76c-9.1,-3.94 -17.964,-5.91 -26.595,-5.91c-9.38,0 -17.87,2.346 -25.468,7.036c-7.599,4.69 -13.555,11.116 -17.87,19.277c-4.316,8.162 -6.473,17.214 -6.473,27.157c-0,10.132 2.204,19.325 6.613,27.58c4.409,8.255 10.46,14.727 18.152,19.418c7.692,4.69 16.228,7.035 25.609,7.035c8.443,0 18.386,-2.72 29.831,-8.161l-0,-49.249Z" style="fill:#fff;fill-rule:nonzero;"></path><path d="M778.901,726.249l53.469,0l0,197.276l-49.811,-0l-83.582,-109.754l0,109.754l-53.751,-0l-0,-197.276l50.093,0l83.582,110.036l-0,-110.036Z" style="fill:#fff;fill-rule:nonzero;"></path><path d="M853.578,726.249l161.254,0l-0,45.027l-102.719,0l0,30.957l93.151,-0l-0,45.027l-93.151,0l0,31.238l105.533,-0l0,45.027l-164.068,-0l0,-197.276Z" style="fill:#fff;fill-rule:nonzero;"></path><path d="M1029.87,726.249l158.318,0l15.037,46.716l-57.41,0l0,150.56l-58.817,-0l0,-150.56l-57.128,0l-0,-46.716Z" style="fill:#fff;fill-rule:nonzero;"></path><path d="M1464.67,726.249l59.942,0l-66.696,197.276l-60.224,-0l-33.208,-126.358l-34.333,126.358l-59.943,-0l-66.134,-197.276l62.476,0l35.459,137.052l35.177,-137.052l57.129,0l35.459,136.771l34.896,-136.771Z" style="fill:#fff;fill-rule:nonzero;"></path><path d="M1620.52,722.591c20.262,-0 38.602,4.409 55.018,13.227c16.416,8.817 29.267,20.965 38.554,36.443c9.287,15.479 13.931,32.88 13.931,52.204c-0,19.512 -4.644,37.101 -13.931,52.766c-9.287,15.666 -22.138,27.955 -38.554,36.866c-16.416,8.912 -34.756,13.368 -55.018,13.368c-20.45,-0 -38.836,-4.456 -55.158,-13.368c-16.323,-8.911 -29.127,-21.2 -38.414,-36.866c-9.287,-15.665 -13.931,-33.254 -13.931,-52.766c0,-19.324 4.644,-36.725 13.931,-52.204c9.287,-15.478 22.091,-27.626 38.414,-36.443c16.322,-8.818 34.708,-13.227 55.158,-13.227Zm0.844,48.685c-8.63,0 -16.65,2.346 -24.061,7.036c-7.411,4.69 -13.321,11.116 -17.73,19.277c-4.409,8.162 -6.613,17.214 -6.613,27.157c-0,9.944 2.204,19.043 6.613,27.298c4.409,8.255 10.319,14.775 17.73,19.559c7.411,4.784 15.431,7.176 24.061,7.176c8.443,0 16.276,-2.392 23.499,-7.176c7.223,-4.784 12.898,-11.257 17.026,-19.418c4.127,-8.161 6.191,-17.307 6.191,-27.439c0,-9.943 -2.064,-18.995 -6.191,-27.157c-4.128,-8.161 -9.756,-14.587 -16.885,-19.277c-7.13,-4.69 -15.01,-7.036 -23.64,-7.036Z" style="fill:#fff;fill-rule:nonzero;"></path><path d="M1859.64,923.525l-26.172,-53.188l-30.956,-0l-0,53.188l-58.536,-0l0,-197.276l92.025,0c26.453,0 46.95,6.098 61.49,18.293c14.54,12.194 21.81,29.455 21.81,51.781c0,14.446 -2.861,26.969 -8.583,37.57c-5.722,10.6 -13.93,18.995 -24.624,25.187l39.962,64.445l-66.416,-0Zm-57.128,-98.216l33.489,0c8.818,0 15.619,-2.345 20.403,-7.035c4.784,-4.691 7.176,-11.445 7.176,-20.263c0,-8.63 -2.392,-15.243 -7.176,-19.84c-4.784,-4.596 -11.585,-6.895 -20.403,-6.895l-33.489,0l-0,54.033Z" style="fill:#fff;fill-rule:nonzero;"></path><path d="M2134.72,923.525l-70.073,-0l-46.153,-72.606l-21.951,24.202l-0,48.404l-58.536,-0l0,-197.276l58.536,0l-0,79.079l66.134,-79.079l67.541,0l-71.763,79.924l76.265,117.352Z" style="fill:#fff;fill-rule:nonzero;"></path></g><path d="M866.921,493.909l224.374,-0c161.582,-0 272.357,-97.375 272.357,-246.957c0,-149.583 -110.775,-246.952 -272.357,-246.952l-224.374,-0l-83.828,248.621l83.828,245.288Zm114.303,-93.843l-0,-95.48l89.416,-55.807l-89.416,-44.887l-0,-110.049l104.427,-0c98.079,-0 162.285,58.562 162.285,153.109c0,94.552 -64.206,153.114 -162.285,153.114l-104.427,0Z" style="fill:#fff;fill-rule:nonzero;"></path></g><g transform="matrix(94.8872,0,0,94.8872,-2.04007,1024.28)"><path d="M0.022,-0l0.199,-0.7l0.19,0l0.199,0.7l-0.111,-0l-0.046,-0.165l-0.274,-0l-0.046,0.165l-0.112,-0Zm0.184,-0.265l0.221,0l-0.102,-0.368l-0.016,0l-0.103,0.368Z" style="fill:#fff;fill-rule:nonzero;"></path></g><g transform="matrix(94.8872,0,0,94.8872,56.5907,1024.28)"></g><g transform="matrix(94.8872,0,0,94.8872,80.8249,1024.28)"><path d="M0.047,-0l-0,-0.096l0.095,0l-0.001,-0.508l-0.094,-0l-0,-0.096l0.28,-0c0.093,-0 0.164,0.024 0.214,0.071c0.05,0.047 0.075,0.118 0.075,0.214l-0,0.131c-0,0.095 -0.025,0.166 -0.075,0.213c-0.05,0.047 -0.121,0.071 -0.214,0.071l-0.28,0Zm0.203,-0.098l0.078,-0c0.061,-0 0.106,-0.016 0.135,-0.046c0.03,-0.031 0.044,-0.076 0.044,-0.137l0,-0.138c0,-0.061 -0.014,-0.107 -0.044,-0.137c-0.029,-0.03 -0.074,-0.045 -0.135,-0.045l-0.078,-0l-0,0.503Z" style="fill:#fff;fill-rule:nonzero;"></path></g><g transform="matrix(94.8872,0,0,94.8872,143.887,1024.28)"><path d="M0.302,0.014c-0.05,0 -0.093,-0.011 -0.131,-0.032c-0.037,-0.02 -0.066,-0.05 -0.087,-0.088c-0.021,-0.039 -0.032,-0.083 -0.032,-0.134l0,-0.012c0,-0.052 0.011,-0.096 0.031,-0.134c0.021,-0.038 0.05,-0.068 0.087,-0.089c0.037,-0.021 0.079,-0.032 0.128,-0.032c0.047,0 0.089,0.011 0.125,0.032c0.035,0.02 0.063,0.049 0.083,0.087c0.02,0.037 0.03,0.081 0.03,0.131l0,0.039l-0.38,0c0.002,0.044 0.017,0.078 0.045,0.103c0.027,0.026 0.062,0.039 0.103,0.039c0.039,-0 0.068,-0.009 0.088,-0.026c0.019,-0.017 0.034,-0.037 0.045,-0.06l0.085,0.044c-0.009,0.019 -0.023,0.038 -0.04,0.059c-0.018,0.02 -0.041,0.038 -0.07,0.052c-0.029,0.014 -0.066,0.021 -0.11,0.021Zm-0.145,-0.311l0.274,0c-0.002,-0.037 -0.016,-0.066 -0.04,-0.087c-0.024,-0.022 -0.055,-0.032 -0.094,-0.032c-0.039,-0 -0.071,0.01 -0.095,0.032c-0.024,0.021 -0.039,0.05 -0.045,0.087Z" style="fill:#fff;fill-rule:nonzero;"></path></g><g transform="matrix(94.8872,0,0,94.8872,199.334,1024.28)"><path d="M0.305,0.014c-0.047,0 -0.09,-0.01 -0.129,-0.03c-0.038,-0.02 -0.068,-0.049 -0.09,-0.087c-0.023,-0.038 -0.034,-0.084 -0.034,-0.137l0,-0.013c0,-0.053 0.011,-0.098 0.034,-0.136c0.022,-0.038 0.052,-0.067 0.09,-0.087c0.039,-0.02 0.082,-0.031 0.129,-0.031c0.048,0 0.088,0.009 0.121,0.026c0.034,0.017 0.06,0.04 0.08,0.069c0.021,0.028 0.034,0.06 0.039,0.095l-0.099,0.021c-0.003,-0.022 -0.01,-0.042 -0.021,-0.06c-0.011,-0.018 -0.026,-0.032 -0.045,-0.043c-0.02,-0.01 -0.044,-0.016 -0.073,-0.016c-0.028,0 -0.054,0.007 -0.077,0.019c-0.023,0.013 -0.042,0.032 -0.055,0.056c-0.013,0.025 -0.02,0.054 -0.02,0.089l0,0.009c0,0.035 0.007,0.065 0.02,0.089c0.013,0.024 0.032,0.043 0.055,0.056c0.023,0.013 0.049,0.019 0.077,0.019c0.044,0 0.077,-0.011 0.099,-0.033c0.023,-0.023 0.037,-0.051 0.043,-0.086l0.1,0.023c-0.008,0.034 -0.022,0.065 -0.042,0.094c-0.021,0.029 -0.047,0.051 -0.081,0.068c-0.033,0.017 -0.073,0.026 -0.121,0.026Z" style="fill:#fff;fill-rule:nonzero;"></path></g><g transform="matrix(94.8872,0,0,94.8872,255.503,1024.28)"><path d="M0.302,0.014c-0.05,0 -0.093,-0.011 -0.131,-0.032c-0.037,-0.02 -0.066,-0.05 -0.087,-0.088c-0.021,-0.039 -0.032,-0.083 -0.032,-0.134l0,-0.012c0,-0.052 0.011,-0.096 0.031,-0.134c0.021,-0.038 0.05,-0.068 0.087,-0.089c0.037,-0.021 0.079,-0.032 0.128,-0.032c0.047,0 0.089,0.011 0.125,0.032c0.035,0.02 0.063,0.049 0.083,0.087c0.02,0.037 0.03,0.081 0.03,0.131l0,0.039l-0.38,0c0.002,0.044 0.017,0.078 0.045,0.103c0.027,0.026 0.062,0.039 0.103,0.039c0.039,-0 0.068,-0.009 0.088,-0.026c0.019,-0.017 0.034,-0.037 0.045,-0.06l0.085,0.044c-0.009,0.019 -0.023,0.038 -0.04,0.059c-0.018,0.02 -0.041,0.038 -0.07,0.052c-0.029,0.014 -0.066,0.021 -0.11,0.021Zm-0.145,-0.311l0.274,0c-0.002,-0.037 -0.016,-0.066 -0.04,-0.087c-0.024,-0.022 -0.055,-0.032 -0.094,-0.032c-0.039,-0 -0.071,0.01 -0.095,0.032c-0.024,0.021 -0.039,0.05 -0.045,0.087Z" style="fill:#fff;fill-rule:nonzero;"></path></g><g transform="matrix(94.8872,0,0,94.8872,310.95,1024.28)"><path d="M0.076,-0l0,-0.493l0.101,0.001l0,0.073l0.016,0c0.01,-0.02 0.026,-0.039 0.05,-0.056c0.024,-0.018 0.059,-0.026 0.107,-0.026c0.037,-0 0.07,0.008 0.1,0.025c0.029,0.016 0.052,0.04 0.068,0.07c0.017,0.031 0.025,0.067 0.025,0.11l0,0.296l-0.103,-0l0,-0.288c0,-0.043 -0.011,-0.075 -0.032,-0.095c-0.021,-0.02 -0.051,-0.03 -0.088,-0.03c-0.043,-0 -0.077,0.014 -0.103,0.042c-0.025,0.028 -0.038,0.069 -0.038,0.122l0,0.249l-0.103,0Z" style="fill:#fff;fill-rule:nonzero;"></path></g><g transform="matrix(94.8872,0,0,94.8872,367.939,1024.28)"><path d="M0.261,-0c-0.03,-0 -0.054,-0.009 -0.072,-0.027c-0.018,-0.018 -0.026,-0.042 -0.026,-0.072l-0,-0.307l-0.136,0l0,-0.086l0.136,-0l-0,-0.164l0.103,-0l-0.001,0.164l0.148,-0.001l0,0.087l-0.148,-0l0.001,0.29c-0.001,0.019 0.009,0.029 0.028,0.029l0.102,0l0.001,0.087l-0.136,-0Z" style="fill:#fff;fill-rule:nonzero;"></path></g><g transform="matrix(94.8872,0,0,94.8872,411.407,1024.28)"><path d="M0.076,-0l0,-0.493l0.101,0.001l0,0.057l0.016,0c0.008,-0.02 0.021,-0.036 0.038,-0.045c0.018,-0.01 0.04,-0.015 0.066,-0.015l0.059,0.001l-0,0.092l-0.063,-0c-0.034,-0 -0.061,0.009 -0.082,0.027c-0.021,0.019 -0.032,0.047 -0.032,0.085l0,0.29l-0.103,-0Z" style="fill:#fff;fill-rule:nonzero;"></path></g><g transform="matrix(94.8872,0,0,94.8872,446.283,1024.28)"><path d="M0.229,0.014c-0.035,0 -0.067,-0.006 -0.095,-0.018c-0.027,-0.012 -0.05,-0.03 -0.066,-0.053c-0.016,-0.024 -0.024,-0.052 -0.024,-0.085c-0,-0.034 0.008,-0.062 0.024,-0.084c0.016,-0.023 0.039,-0.039 0.067,-0.051c0.029,-0.011 0.061,-0.017 0.097,-0.017l0.15,0l0,-0.032c0,-0.028 -0.008,-0.052 -0.026,-0.069c-0.017,-0.018 -0.044,-0.026 -0.08,-0.026c-0.035,-0 -0.062,0.008 -0.081,0.025c-0.019,0.016 -0.031,0.038 -0.037,0.065l-0.096,-0.031c0.008,-0.026 0.021,-0.051 0.039,-0.072c0.017,-0.022 0.041,-0.039 0.07,-0.053c0.029,-0.013 0.065,-0.019 0.106,-0.019c0.064,-0 0.115,0.016 0.151,0.048c0.037,0.033 0.055,0.079 0.055,0.139l-0,0.203c-0,0.02 0.009,0.03 0.028,0.03l0.042,0l0,0.086l-0.077,0c-0.023,0 -0.042,-0.006 -0.057,-0.018c-0.014,-0.012 -0.021,-0.029 -0.021,-0.049l-0,-0.003l-0.016,-0c-0.005,0.01 -0.013,0.022 -0.024,0.035c-0.011,0.014 -0.026,0.025 -0.047,0.035c-0.021,0.009 -0.048,0.014 -0.082,0.014Zm0.015,-0.085c0.041,-0 0.074,-0.012 0.1,-0.036c0.026,-0.023 0.038,-0.056 0.038,-0.097l0,-0.01l-0.144,-0c-0.027,-0 -0.049,0.005 -0.066,0.017c-0.017,0.012 -0.025,0.029 -0.025,0.052c-0,0.023 0.009,0.041 0.026,0.054c0.017,0.013 0.041,0.02 0.071,0.02Z" style="fill:#fff;fill-rule:nonzero;"></path></g><g transform="matrix(94.8872,0,0,94.8872,500.995,1024.28)"><rect x="0.076" y="-0.7" width="0.103" height="0.7" style="fill:#fff;fill-rule:nonzero;"></rect></g><g transform="matrix(94.8872,0,0,94.8872,525.239,1024.28)"><path d="M0.076,-0l0,-0.493l0.103,0l0,0.493l-0.103,-0Zm0.052,-0.56c-0.02,0 -0.037,-0.006 -0.051,-0.019c-0.013,-0.013 -0.02,-0.03 -0.02,-0.051c0,-0.021 0.007,-0.037 0.021,-0.05c0.013,-0.013 0.03,-0.02 0.05,-0.02c0.021,0 0.038,0.007 0.051,0.02c0.013,0.013 0.02,0.029 0.02,0.05c0,0.021 -0.007,0.038 -0.02,0.051c-0.013,0.013 -0.03,0.019 -0.051,0.019Z" style="fill:#fff;fill-rule:nonzero;"></path></g><g transform="matrix(94.8872,0,0,94.8872,549.482,1024.28)"><path d="M0.056,-0l0,-0.126l0.291,-0.266l0,-0.014l-0.281,0l0,-0.086l0.393,-0l-0,0.126l-0.292,0.266l-0,0.014l0.3,-0l-0,0.086l-0.411,0Z" style="fill:#fff;fill-rule:nonzero;"></path></g><g transform="matrix(94.8872,0,0,94.8872,596.489,1024.28)"><path d="M0.302,0.014c-0.05,0 -0.093,-0.011 -0.131,-0.032c-0.037,-0.02 -0.066,-0.05 -0.087,-0.088c-0.021,-0.039 -0.032,-0.083 -0.032,-0.134l0,-0.012c0,-0.052 0.011,-0.096 0.031,-0.134c0.021,-0.038 0.05,-0.068 0.087,-0.089c0.037,-0.021 0.079,-0.032 0.128,-0.032c0.047,0 0.089,0.011 0.125,0.032c0.035,0.02 0.063,0.049 0.083,0.087c0.02,0.037 0.03,0.081 0.03,0.131l0,0.039l-0.38,0c0.002,0.044 0.017,0.078 0.045,0.103c0.027,0.026 0.062,0.039 0.103,0.039c0.039,-0 0.068,-0.009 0.088,-0.026c0.019,-0.017 0.034,-0.037 0.045,-0.06l0.085,0.044c-0.009,0.019 -0.023,0.038 -0.04,0.059c-0.018,0.02 -0.041,0.038 -0.07,0.052c-0.029,0.014 -0.066,0.021 -0.11,0.021Zm-0.145,-0.311l0.274,0c-0.002,-0.037 -0.016,-0.066 -0.04,-0.087c-0.024,-0.022 -0.055,-0.032 -0.094,-0.032c-0.039,-0 -0.071,0.01 -0.095,0.032c-0.024,0.021 -0.039,0.05 -0.045,0.087Z" style="fill:#fff;fill-rule:nonzero;"></path></g><g transform="matrix(94.8872,0,0,94.8872,651.937,1024.28)"><path d="M0.28,0.014c-0.041,0 -0.079,-0.01 -0.113,-0.03c-0.035,-0.02 -0.063,-0.049 -0.084,-0.087c-0.02,-0.037 -0.031,-0.083 -0.031,-0.136l0,-0.015c0,-0.053 0.011,-0.098 0.031,-0.136c0.021,-0.038 0.049,-0.067 0.083,-0.087c0.035,-0.02 0.073,-0.03 0.114,-0.03c0.032,0 0.059,0.004 0.081,0.012c0.022,0.008 0.039,0.018 0.053,0.031c0.014,0.012 0.024,0.025 0.032,0.038l0.016,0l-0,-0.274l0.102,-0l0,0.7l-0.1,-0l-0,-0.07l-0.016,-0c-0.013,0.021 -0.032,0.041 -0.057,0.058c-0.026,0.017 -0.063,0.026 -0.111,0.026Zm0.029,-0.09c0.045,-0 0.082,-0.015 0.111,-0.043c0.028,-0.029 0.043,-0.07 0.043,-0.123l-0,-0.009c-0,-0.053 -0.014,-0.094 -0.043,-0.122c-0.029,-0.029 -0.066,-0.043 -0.111,-0.043c-0.044,-0 -0.081,0.014 -0.11,0.043c-0.029,0.028 -0.043,0.069 -0.043,0.122l-0,0.009c-0,0.053 0.014,0.094 0.043,0.123c0.029,0.028 0.066,0.043 0.11,0.043Z" style="fill:#fff;fill-rule:nonzero;"></path></g><g transform="matrix(94.8872,0,0,94.8872,712.74,1024.28)"></g><g transform="matrix(94.8872,0,0,94.8872,736.975,1024.28)"><path d="M0.073,-0l0,-0.7l0.208,0l0.19,0.628l0.016,0l-0,-0.628l0.107,0l-0,0.7l-0.208,-0l-0.19,-0.629l-0.016,0l-0,0.629l-0.107,-0Z" style="fill:#fff;fill-rule:nonzero;"></path></g><g transform="matrix(94.8872,0,0,94.8872,800.25,1024.28)"><path d="M0.302,0.014c-0.05,0 -0.093,-0.011 -0.131,-0.032c-0.037,-0.02 -0.066,-0.05 -0.087,-0.088c-0.021,-0.039 -0.032,-0.083 -0.032,-0.134l0,-0.012c0,-0.052 0.011,-0.096 0.031,-0.134c0.021,-0.038 0.05,-0.068 0.087,-0.089c0.037,-0.021 0.079,-0.032 0.128,-0.032c0.047,0 0.089,0.011 0.125,0.032c0.035,0.02 0.063,0.049 0.083,0.087c0.02,0.037 0.03,0.081 0.03,0.131l0,0.039l-0.38,0c0.002,0.044 0.017,0.078 0.045,0.103c0.027,0.026 0.062,0.039 0.103,0.039c0.039,-0 0.068,-0.009 0.088,-0.026c0.019,-0.017 0.034,-0.037 0.045,-0.06l0.085,0.044c-0.009,0.019 -0.023,0.038 -0.04,0.059c-0.018,0.02 -0.041,0.038 -0.07,0.052c-0.029,0.014 -0.066,0.021 -0.11,0.021Zm-0.145,-0.311l0.274,0c-0.002,-0.037 -0.016,-0.066 -0.04,-0.087c-0.024,-0.022 -0.055,-0.032 -0.094,-0.032c-0.039,-0 -0.071,0.01 -0.095,0.032c-0.024,0.021 -0.039,0.05 -0.045,0.087Z" style="fill:#fff;fill-rule:nonzero;"></path></g><g transform="matrix(94.8872,0,0,94.8872,853.705,1024.28)"><path d="M0.261,-0c-0.03,-0 -0.054,-0.009 -0.072,-0.027c-0.018,-0.018 -0.026,-0.042 -0.026,-0.072l-0,-0.307l-0.136,0l0,-0.086l0.136,-0l-0,-0.164l0.103,-0l-0.001,0.164l0.148,-0.001l0,0.087l-0.148,-0l0.001,0.29c-0.001,0.019 0.009,0.029 0.028,0.029l0.102,0l0.001,0.087l-0.136,-0Z" style="fill:#fff;fill-rule:nonzero;"></path></g><g transform="matrix(94.8872,0,0,94.8872,897.173,1024.28)"><path d="M0.13,-0l-0.084,-0.493l0.103,0.001l0.062,0.423l0.016,-0l0.086,-0.424l0.167,0.001l0.085,0.423l0.016,-0l0.062,-0.424l0.103,0.001l-0.084,0.492l-0.173,-0l-0.085,-0.423l-0.016,-0l-0.085,0.423l-0.173,-0Z" style="fill:#fff;fill-rule:nonzero;"></path></g><g transform="matrix(94.8872,0,0,94.8872,971.128,1024.28)"><path d="M0.307,0.014c-0.049,0 -0.093,-0.01 -0.131,-0.031c-0.039,-0.02 -0.069,-0.049 -0.091,-0.087c-0.022,-0.038 -0.033,-0.083 -0.033,-0.135l0,-0.015c0,-0.052 0.011,-0.097 0.033,-0.135c0.022,-0.038 0.052,-0.067 0.091,-0.087c0.038,-0.02 0.082,-0.031 0.131,-0.031c0.05,0 0.094,0.011 0.132,0.031c0.039,0.02 0.069,0.049 0.091,0.087c0.022,0.038 0.032,0.083 0.032,0.135l0,0.015c0,0.052 -0.01,0.097 -0.032,0.135c-0.022,0.038 -0.052,0.067 -0.091,0.087c-0.038,0.021 -0.082,0.031 -0.132,0.031Zm0,-0.092c0.046,0 0.082,-0.014 0.11,-0.043c0.029,-0.029 0.043,-0.069 0.043,-0.121l-0,-0.009c-0,-0.051 -0.014,-0.091 -0.042,-0.12c-0.028,-0.029 -0.065,-0.044 -0.111,-0.044c-0.045,0 -0.081,0.015 -0.109,0.044c-0.029,0.029 -0.043,0.069 -0.043,0.12l0,0.009c0,0.052 0.014,0.092 0.043,0.121c0.028,0.029 0.064,0.043 0.109,0.043Z" style="fill:#fff;fill-rule:nonzero;"></path></g><g transform="matrix(94.8872,0,0,94.8872,1029.46,1024.28)"><path d="M0.076,-0l0,-0.493l0.101,0.001l0,0.057l0.016,0c0.008,-0.02 0.021,-0.036 0.038,-0.045c0.018,-0.01 0.04,-0.015 0.066,-0.015l0.059,0.001l-0,0.092l-0.063,-0c-0.034,-0 -0.061,0.009 -0.082,0.027c-0.021,0.019 -0.032,0.047 -0.032,0.085l0,0.29l-0.103,-0Z" style="fill:#fff;fill-rule:nonzero;"></path></g><g transform="matrix(94.8872,0,0,94.8872,1066.14,1024.28)"><path d="M0.076,-0l0,-0.7l0.103,0l0,0.399l0.016,0l0.194,-0.191l0.137,-0l-0.249,0.238l0.257,0.254l-0.136,-0l-0.203,-0.205l-0.016,0l0,0.205l-0.103,-0Z" style="fill:#fff;fill-rule:nonzero;"></path></g><g transform="matrix(94.8872,0,0,94.8872,1118.43,1024.28)"></g><g transform="matrix(94.8872,0,0,94.8872,1142.66,1024.28)"><path d="M0.073,-0l0,-0.7l0.432,0l-0,0.098l-0.324,0l0,0.202l0.298,-0l-0,0.098l-0.298,0l0,0.302l-0.108,0Z" style="fill:#fff;fill-rule:nonzero;"></path></g><g transform="matrix(94.8872,0,0,94.8872,1192.94,1024.28)"><path d="M0.307,0.014c-0.049,0 -0.093,-0.01 -0.131,-0.031c-0.039,-0.02 -0.069,-0.049 -0.091,-0.087c-0.022,-0.038 -0.033,-0.083 -0.033,-0.135l0,-0.015c0,-0.052 0.011,-0.097 0.033,-0.135c0.022,-0.038 0.052,-0.067 0.091,-0.087c0.038,-0.02 0.082,-0.031 0.131,-0.031c0.05,0 0.094,0.011 0.132,0.031c0.039,0.02 0.069,0.049 0.091,0.087c0.022,0.038 0.032,0.083 0.032,0.135l0,0.015c0,0.052 -0.01,0.097 -0.032,0.135c-0.022,0.038 -0.052,0.067 -0.091,0.087c-0.038,0.021 -0.082,0.031 -0.132,0.031Zm0,-0.092c0.046,0 0.082,-0.014 0.11,-0.043c0.029,-0.029 0.043,-0.069 0.043,-0.121l-0,-0.009c-0,-0.051 -0.014,-0.091 -0.042,-0.12c-0.028,-0.029 -0.065,-0.044 -0.111,-0.044c-0.045,0 -0.081,0.015 -0.109,0.044c-0.029,0.029 -0.043,0.069 -0.043,0.12l0,0.009c0,0.052 0.014,0.092 0.043,0.121c0.028,0.029 0.064,0.043 0.109,0.043Z" style="fill:#fff;fill-rule:nonzero;"></path></g><g transform="matrix(94.8872,0,0,94.8872,1251.27,1024.28)"><path d="M0.076,-0l0,-0.493l0.101,0.001l0,0.057l0.016,0c0.008,-0.02 0.021,-0.036 0.038,-0.045c0.018,-0.01 0.04,-0.015 0.066,-0.015l0.059,0.001l-0,0.092l-0.063,-0c-0.034,-0 -0.061,0.009 -0.082,0.027c-0.021,0.019 -0.032,0.047 -0.032,0.085l0,0.29l-0.103,-0Z" style="fill:#fff;fill-rule:nonzero;"></path></g><g transform="matrix(94.8872,0,0,94.8872,1287.95,1024.28)"></g><g transform="matrix(94.8872,0,0,94.8872,1312.19,1024.28)"><path d="M0.335,0.014c-0.055,0 -0.102,-0.01 -0.142,-0.03c-0.04,-0.02 -0.071,-0.048 -0.092,-0.086c-0.022,-0.038 -0.033,-0.084 -0.033,-0.138l0,-0.46l0.108,0l0.001,0.463c-0.001,0.049 0.013,0.087 0.041,0.114c0.027,0.027 0.066,0.04 0.117,0.04c0.05,0 0.089,-0.013 0.117,-0.04c0.027,-0.027 0.041,-0.065 0.041,-0.114l-0,-0.463l0.108,0l-0,0.46c-0,0.054 -0.011,0.1 -0.032,0.138c-0.022,0.038 -0.052,0.066 -0.092,0.086c-0.04,0.02 -0.088,0.03 -0.142,0.03Z" style="fill:#fff;fill-rule:nonzero;"></path></g><g transform="matrix(94.8872,0,0,94.8872,1375.68,1024.28)"><path d="M0.076,-0l0,-0.493l0.101,0.001l0,0.073l0.016,0c0.01,-0.02 0.026,-0.039 0.05,-0.056c0.024,-0.018 0.059,-0.026 0.107,-0.026c0.037,-0 0.07,0.008 0.1,0.025c0.029,0.016 0.052,0.04 0.068,0.07c0.017,0.031 0.025,0.067 0.025,0.11l0,0.296l-0.103,-0l0,-0.288c0,-0.043 -0.011,-0.075 -0.032,-0.095c-0.021,-0.02 -0.051,-0.03 -0.088,-0.03c-0.043,-0 -0.077,0.014 -0.103,0.042c-0.025,0.028 -0.038,0.069 -0.038,0.122l0,0.249l-0.103,0Z" style="fill:#fff;fill-rule:nonzero;"></path></g><g transform="matrix(94.8872,0,0,94.8872,1434,1024.28)"><path d="M0.278,0.014c-0.063,0 -0.115,-0.014 -0.156,-0.042c-0.042,-0.028 -0.067,-0.07 -0.076,-0.127l0.096,-0.023c0.005,0.028 0.014,0.049 0.027,0.065c0.013,0.016 0.029,0.027 0.048,0.034c0.018,0.006 0.039,0.01 0.061,0.01c0.033,-0 0.058,-0.006 0.076,-0.019c0.017,-0.012 0.026,-0.029 0.026,-0.049c0,-0.02 -0.008,-0.035 -0.025,-0.044c-0.017,-0.009 -0.041,-0.017 -0.074,-0.023l-0.034,-0.006c-0.033,-0.006 -0.063,-0.015 -0.091,-0.026c-0.027,-0.012 -0.049,-0.027 -0.065,-0.047c-0.016,-0.02 -0.024,-0.046 -0.024,-0.077c-0,-0.047 0.017,-0.083 0.052,-0.108c0.035,-0.026 0.081,-0.039 0.138,-0.039c0.056,0 0.101,0.013 0.137,0.038c0.035,0.024 0.058,0.058 0.069,0.101l-0.096,0.027c-0.006,-0.03 -0.018,-0.051 -0.038,-0.064c-0.019,-0.012 -0.043,-0.018 -0.072,-0.018c-0.028,-0 -0.05,0.005 -0.066,0.015c-0.016,0.01 -0.024,0.025 -0.024,0.044c-0,0.02 0.008,0.035 0.023,0.044c0.016,0.009 0.037,0.016 0.064,0.021l0.035,0.006c0.035,0.006 0.068,0.015 0.097,0.025c0.029,0.011 0.052,0.026 0.069,0.046c0.017,0.02 0.025,0.046 0.025,0.08c0,0.05 -0.018,0.088 -0.054,0.115c-0.037,0.027 -0.086,0.041 -0.148,0.041Z" style="fill:#fff;fill-rule:nonzero;"></path></g><g transform="matrix(94.8872,0,0,94.8872,1482.72,1024.28)"><path d="M0.261,-0c-0.03,-0 -0.054,-0.009 -0.072,-0.027c-0.018,-0.018 -0.026,-0.042 -0.026,-0.072l-0,-0.307l-0.136,0l0,-0.086l0.136,-0l-0,-0.164l0.103,-0l-0.001,0.164l0.148,-0.001l0,0.087l-0.148,-0l0.001,0.29c-0.001,0.019 0.009,0.029 0.028,0.029l0.102,0l0.001,0.087l-0.136,-0Z" style="fill:#fff;fill-rule:nonzero;"></path></g><g transform="matrix(94.8872,0,0,94.8872,1524.48,1024.28)"><path d="M0.307,0.014c-0.049,0 -0.093,-0.01 -0.131,-0.031c-0.039,-0.02 -0.069,-0.049 -0.091,-0.087c-0.022,-0.038 -0.033,-0.083 -0.033,-0.135l0,-0.015c0,-0.052 0.011,-0.097 0.033,-0.135c0.022,-0.038 0.052,-0.067 0.091,-0.087c0.038,-0.02 0.082,-0.031 0.131,-0.031c0.05,0 0.094,0.011 0.132,0.031c0.039,0.02 0.069,0.049 0.091,0.087c0.022,0.038 0.032,0.083 0.032,0.135l0,0.015c0,0.052 -0.01,0.097 -0.032,0.135c-0.022,0.038 -0.052,0.067 -0.091,0.087c-0.038,0.021 -0.082,0.031 -0.132,0.031Zm0,-0.092c0.046,0 0.082,-0.014 0.11,-0.043c0.029,-0.029 0.043,-0.069 0.043,-0.121l-0,-0.009c-0,-0.051 -0.014,-0.091 -0.042,-0.12c-0.028,-0.029 -0.065,-0.044 -0.111,-0.044c-0.045,0 -0.081,0.015 -0.109,0.044c-0.029,0.029 -0.043,0.069 -0.043,0.12l0,0.009c0,0.052 0.014,0.092 0.043,0.121c0.028,0.029 0.064,0.043 0.109,0.043Z" style="fill:#fff;fill-rule:nonzero;"></path></g><g transform="matrix(94.8872,0,0,94.8872,1582.81,1024.28)"><path d="M0.076,0.2l0,-0.693l0.101,0.001l0,0.07l0.016,-0c0.012,-0.022 0.031,-0.042 0.057,-0.059c0.026,-0.017 0.063,-0.026 0.111,-0.026c0.041,0 0.079,0.01 0.113,0.03c0.035,0.02 0.063,0.049 0.083,0.087c0.021,0.038 0.032,0.083 0.032,0.136l-0,0.015c-0,0.053 -0.011,0.099 -0.031,0.136c-0.021,0.038 -0.049,0.067 -0.083,0.087c-0.035,0.02 -0.073,0.03 -0.114,0.03c-0.032,-0 -0.059,-0.004 -0.081,-0.012c-0.022,-0.008 -0.039,-0.018 -0.053,-0.031c-0.013,-0.012 -0.024,-0.025 -0.032,-0.038l-0.016,0l0,0.267l-0.103,-0Zm0.255,-0.276c0.045,-0 0.082,-0.015 0.111,-0.043c0.029,-0.029 0.043,-0.07 0.043,-0.123l-0,-0.009c-0,-0.053 -0.015,-0.094 -0.043,-0.122c-0.029,-0.029 -0.066,-0.043 -0.111,-0.043c-0.044,-0 -0.081,0.014 -0.11,0.043c-0.029,0.028 -0.043,0.069 -0.043,0.122l-0,0.009c-0,0.053 0.014,0.094 0.043,0.123c0.029,0.028 0.066,0.043 0.11,0.043Z" style="fill:#fff;fill-rule:nonzero;"></path></g><g transform="matrix(94.8872,0,0,94.8872,1643.62,1024.28)"><path d="M0.076,0.2l0,-0.693l0.101,0.001l0,0.07l0.016,-0c0.012,-0.022 0.031,-0.042 0.057,-0.059c0.026,-0.017 0.063,-0.026 0.111,-0.026c0.041,0 0.079,0.01 0.113,0.03c0.035,0.02 0.063,0.049 0.083,0.087c0.021,0.038 0.032,0.083 0.032,0.136l-0,0.015c-0,0.053 -0.011,0.099 -0.031,0.136c-0.021,0.038 -0.049,0.067 -0.083,0.087c-0.035,0.02 -0.073,0.03 -0.114,0.03c-0.032,-0 -0.059,-0.004 -0.081,-0.012c-0.022,-0.008 -0.039,-0.018 -0.053,-0.031c-0.013,-0.012 -0.024,-0.025 -0.032,-0.038l-0.016,0l0,0.267l-0.103,-0Zm0.255,-0.276c0.045,-0 0.082,-0.015 0.111,-0.043c0.029,-0.029 0.043,-0.07 0.043,-0.123l-0,-0.009c-0,-0.053 -0.015,-0.094 -0.043,-0.122c-0.029,-0.029 -0.066,-0.043 -0.111,-0.043c-0.044,-0 -0.081,0.014 -0.11,0.043c-0.029,0.028 -0.043,0.069 -0.043,0.122l-0,0.009c-0,0.053 0.014,0.094 0.043,0.123c0.029,0.028 0.066,0.043 0.11,0.043Z" style="fill:#fff;fill-rule:nonzero;"></path></g><g transform="matrix(94.8872,0,0,94.8872,1704.42,1024.28)"><path d="M0.229,0.014c-0.035,0 -0.067,-0.006 -0.095,-0.018c-0.027,-0.012 -0.05,-0.03 -0.066,-0.053c-0.016,-0.024 -0.024,-0.052 -0.024,-0.085c-0,-0.034 0.008,-0.062 0.024,-0.084c0.016,-0.023 0.039,-0.039 0.067,-0.051c0.029,-0.011 0.061,-0.017 0.097,-0.017l0.15,0l0,-0.032c0,-0.028 -0.008,-0.052 -0.026,-0.069c-0.017,-0.018 -0.044,-0.026 -0.08,-0.026c-0.035,-0 -0.062,0.008 -0.081,0.025c-0.019,0.016 -0.031,0.038 -0.037,0.065l-0.096,-0.031c0.008,-0.026 0.021,-0.051 0.039,-0.072c0.017,-0.022 0.041,-0.039 0.07,-0.053c0.029,-0.013 0.065,-0.019 0.106,-0.019c0.064,-0 0.115,0.016 0.151,0.048c0.037,0.033 0.055,0.079 0.055,0.139l-0,0.203c-0,0.02 0.009,0.03 0.028,0.03l0.042,0l0,0.086l-0.077,0c-0.023,0 -0.042,-0.006 -0.057,-0.018c-0.014,-0.012 -0.021,-0.029 -0.021,-0.049l-0,-0.003l-0.016,-0c-0.005,0.01 -0.013,0.022 -0.024,0.035c-0.011,0.014 -0.026,0.025 -0.047,0.035c-0.021,0.009 -0.048,0.014 -0.082,0.014Zm0.015,-0.085c0.041,-0 0.074,-0.012 0.1,-0.036c0.026,-0.023 0.038,-0.056 0.038,-0.097l0,-0.01l-0.144,-0c-0.027,-0 -0.049,0.005 -0.066,0.017c-0.017,0.012 -0.025,0.029 -0.025,0.052c-0,0.023 0.009,0.041 0.026,0.054c0.017,0.013 0.041,0.02 0.071,0.02Z" style="fill:#fff;fill-rule:nonzero;"></path></g><g transform="matrix(94.8872,0,0,94.8872,1759.13,1024.28)"><path d="M0.361,0.014c-0.048,0 -0.085,-0.009 -0.111,-0.026c-0.026,-0.017 -0.045,-0.037 -0.057,-0.058l-0.016,-0l0,0.07l-0.101,-0l0,-0.7l0.103,0l0,0.274l0.016,0c0.008,-0.013 0.019,-0.026 0.032,-0.038c0.014,-0.013 0.031,-0.023 0.053,-0.031c0.022,-0.008 0.049,-0.012 0.081,-0.012c0.041,0 0.079,0.01 0.114,0.03c0.034,0.02 0.062,0.049 0.082,0.087c0.021,0.038 0.031,0.083 0.031,0.136l0,0.015c0,0.053 -0.01,0.099 -0.031,0.136c-0.02,0.038 -0.048,0.067 -0.083,0.087c-0.034,0.02 -0.072,0.03 -0.113,0.03Zm-0.03,-0.09c0.045,-0 0.082,-0.015 0.111,-0.043c0.028,-0.029 0.043,-0.07 0.043,-0.123l-0,-0.009c-0,-0.053 -0.014,-0.094 -0.043,-0.122c-0.029,-0.029 -0.066,-0.043 -0.111,-0.043c-0.044,-0 -0.081,0.014 -0.11,0.043c-0.029,0.028 -0.043,0.069 -0.043,0.122l-0,0.009c-0,0.053 0.014,0.094 0.043,0.123c0.029,0.028 0.066,0.043 0.11,0.043Z" style="fill:#fff;fill-rule:nonzero;"></path></g><g transform="matrix(94.8872,0,0,94.8872,1819.94,1024.28)"><rect x="0.076" y="-0.7" width="0.103" height="0.7" style="fill:#fff;fill-rule:nonzero;"></rect></g><g transform="matrix(94.8872,0,0,94.8872,1844.18,1024.28)"><path d="M0.302,0.014c-0.05,0 -0.093,-0.011 -0.131,-0.032c-0.037,-0.02 -0.066,-0.05 -0.087,-0.088c-0.021,-0.039 -0.032,-0.083 -0.032,-0.134l0,-0.012c0,-0.052 0.011,-0.096 0.031,-0.134c0.021,-0.038 0.05,-0.068 0.087,-0.089c0.037,-0.021 0.079,-0.032 0.128,-0.032c0.047,0 0.089,0.011 0.125,0.032c0.035,0.02 0.063,0.049 0.083,0.087c0.02,0.037 0.03,0.081 0.03,0.131l0,0.039l-0.38,0c0.002,0.044 0.017,0.078 0.045,0.103c0.027,0.026 0.062,0.039 0.103,0.039c0.039,-0 0.068,-0.009 0.088,-0.026c0.019,-0.017 0.034,-0.037 0.045,-0.06l0.085,0.044c-0.009,0.019 -0.023,0.038 -0.04,0.059c-0.018,0.02 -0.041,0.038 -0.07,0.052c-0.029,0.014 -0.066,0.021 -0.11,0.021Zm-0.145,-0.311l0.274,0c-0.002,-0.037 -0.016,-0.066 -0.04,-0.087c-0.024,-0.022 -0.055,-0.032 -0.094,-0.032c-0.039,-0 -0.071,0.01 -0.095,0.032c-0.024,0.021 -0.039,0.05 -0.045,0.087Z" style="fill:#fff;fill-rule:nonzero;"></path></g><g transform="matrix(94.8872,0,0,94.8872,1899.63,1024.28)"></g><g transform="matrix(94.8872,0,0,94.8872,1923.86,1024.28)"><path d="M0.047,-0l-0,-0.096l0.095,0l-0.001,-0.508l-0.094,-0l-0,-0.096l0.28,-0c0.093,-0 0.164,0.024 0.214,0.071c0.05,0.047 0.075,0.118 0.075,0.214l-0,0.131c-0,0.095 -0.025,0.166 -0.075,0.213c-0.05,0.047 -0.121,0.071 -0.214,0.071l-0.28,0Zm0.203,-0.098l0.078,-0c0.061,-0 0.106,-0.016 0.135,-0.046c0.03,-0.031 0.044,-0.076 0.044,-0.137l0,-0.138c0,-0.061 -0.014,-0.107 -0.044,-0.137c-0.029,-0.03 -0.074,-0.045 -0.135,-0.045l-0.078,-0l-0,0.503Z" style="fill:#fff;fill-rule:nonzero;"></path></g><g transform="matrix(94.8872,0,0,94.8872,1986.92,1024.28)"><path d="M0.229,0.014c-0.035,0 -0.067,-0.006 -0.095,-0.018c-0.027,-0.012 -0.05,-0.03 -0.066,-0.053c-0.016,-0.024 -0.024,-0.052 -0.024,-0.085c-0,-0.034 0.008,-0.062 0.024,-0.084c0.016,-0.023 0.039,-0.039 0.067,-0.051c0.029,-0.011 0.061,-0.017 0.097,-0.017l0.15,0l0,-0.032c0,-0.028 -0.008,-0.052 -0.026,-0.069c-0.017,-0.018 -0.044,-0.026 -0.08,-0.026c-0.035,-0 -0.062,0.008 -0.081,0.025c-0.019,0.016 -0.031,0.038 -0.037,0.065l-0.096,-0.031c0.008,-0.026 0.021,-0.051 0.039,-0.072c0.017,-0.022 0.041,-0.039 0.07,-0.053c0.029,-0.013 0.065,-0.019 0.106,-0.019c0.064,-0 0.115,0.016 0.151,0.048c0.037,0.033 0.055,0.079 0.055,0.139l-0,0.203c-0,0.02 0.009,0.03 0.028,0.03l0.042,0l0,0.086l-0.077,0c-0.023,0 -0.042,-0.006 -0.057,-0.018c-0.014,-0.012 -0.021,-0.029 -0.021,-0.049l-0,-0.003l-0.016,-0c-0.005,0.01 -0.013,0.022 -0.024,0.035c-0.011,0.014 -0.026,0.025 -0.047,0.035c-0.021,0.009 -0.048,0.014 -0.082,0.014Zm0.015,-0.085c0.041,-0 0.074,-0.012 0.1,-0.036c0.026,-0.023 0.038,-0.056 0.038,-0.097l0,-0.01l-0.144,-0c-0.027,-0 -0.049,0.005 -0.066,0.017c-0.017,0.012 -0.025,0.029 -0.025,0.052c-0,0.023 0.009,0.041 0.026,0.054c0.017,0.013 0.041,0.02 0.071,0.02Z" style="fill:#fff;fill-rule:nonzero;"></path></g><g transform="matrix(94.8872,0,0,94.8872,2038.79,1024.28)"><path d="M0.261,-0c-0.03,-0 -0.054,-0.009 -0.072,-0.027c-0.018,-0.018 -0.026,-0.042 -0.026,-0.072l-0,-0.307l-0.136,0l0,-0.086l0.136,-0l-0,-0.164l0.103,-0l-0.001,0.164l0.148,-0.001l0,0.087l-0.148,-0l0.001,0.29c-0.001,0.019 0.009,0.029 0.028,0.029l0.102,0l0.001,0.087l-0.136,-0Z" style="fill:#fff;fill-rule:nonzero;"></path></g><g transform="matrix(94.8872,0,0,94.8872,2081.88,1024.28)"><path d="M0.229,0.014c-0.035,0 -0.067,-0.006 -0.095,-0.018c-0.027,-0.012 -0.05,-0.03 -0.066,-0.053c-0.016,-0.024 -0.024,-0.052 -0.024,-0.085c-0,-0.034 0.008,-0.062 0.024,-0.084c0.016,-0.023 0.039,-0.039 0.067,-0.051c0.029,-0.011 0.061,-0.017 0.097,-0.017l0.15,0l0,-0.032c0,-0.028 -0.008,-0.052 -0.026,-0.069c-0.017,-0.018 -0.044,-0.026 -0.08,-0.026c-0.035,-0 -0.062,0.008 -0.081,0.025c-0.019,0.016 -0.031,0.038 -0.037,0.065l-0.096,-0.031c0.008,-0.026 0.021,-0.051 0.039,-0.072c0.017,-0.022 0.041,-0.039 0.07,-0.053c0.029,-0.013 0.065,-0.019 0.106,-0.019c0.064,-0 0.115,0.016 0.151,0.048c0.037,0.033 0.055,0.079 0.055,0.139l-0,0.203c-0,0.02 0.009,0.03 0.028,0.03l0.042,0l0,0.086l-0.077,0c-0.023,0 -0.042,-0.006 -0.057,-0.018c-0.014,-0.012 -0.021,-0.029 -0.021,-0.049l-0,-0.003l-0.016,-0c-0.005,0.01 -0.013,0.022 -0.024,0.035c-0.011,0.014 -0.026,0.025 -0.047,0.035c-0.021,0.009 -0.048,0.014 -0.082,0.014Zm0.015,-0.085c0.041,-0 0.074,-0.012 0.1,-0.036c0.026,-0.023 0.038,-0.056 0.038,-0.097l0,-0.01l-0.144,-0c-0.027,-0 -0.049,0.005 -0.066,0.017c-0.017,0.012 -0.025,0.029 -0.025,0.052c-0,0.023 0.009,0.041 0.026,0.054c0.017,0.013 0.041,0.02 0.071,0.02Z" style="fill:#fff;fill-rule:nonzero;"></path></g><g transform="matrix(94.8872,0,0,94.8872,2136.59,1024.28)"></g></svg>